<?xml version="1.0" encoding="UTF-8" standalone="no"?>
<!-- Created with Inkscape (http://www.inkscape.org/) -->

<svg
   version="1.1"
   id="svg1"
   width="600"
   height="600"
   viewBox="0 0 600 600"
   sodipodi:docname="sil_fill.svg"
   inkscape:version="1.3.2 (091e20e, 2023-11-25, custom)"
   xmlns:inkscape="http://www.inkscape.org/namespaces/inkscape"
   xmlns:sodipodi="http://sodipodi.sourceforge.net/DTD/sodipodi-0.dtd"
   xmlns="http://www.w3.org/2000/svg"
   xmlns:svg="http://www.w3.org/2000/svg">
  <defs
     id="defs1" />
  <sodipodi:namedview
     id="namedview1"
     pagecolor="#232323"
     bordercolor="#000000"
     borderopacity="0.25"
     inkscape:showpageshadow="2"
     inkscape:pageopacity="0.0"
     inkscape:pagecheckerboard="0"
     inkscape:deskcolor="#d1d1d1"
     inkscape:zoom="2.0877328"
     inkscape:cx="199.73821"
     inkscape:cy="215.78432"
     inkscape:window-width="2560"
     inkscape:window-height="1377"
     inkscape:window-x="1912"
     inkscape:window-y="-8"
     inkscape:window-maximized="1"
     inkscape:current-layer="g1"
     showguides="false">
    <sodipodi:guide
       position="415.58002,403.38696"
       orientation="0,-1"
       id="guide13"
       inkscape:locked="false" />
  </sodipodi:namedview>
  <g
     inkscape:groupmode="layer"
     inkscape:label="Image"
     id="g1">
    <path
       style="fill:#ffffff;fill-opacity:1;stroke-width:0.478988"
       d="M 296.25439,549.06667 C 287.36281,544.38279 181.17354,482.91002 95.318712,432.74534 l -11.25623,-6.57697 -0.102937,-125.1898 -0.102937,-125.1898 8.964225,-5.2074 C 131.90266,147.87836 249.34985,79.693426 271.48224,66.858011 l 27.43761,-15.912103 5.37311,2.990707 c 2.95521,1.64489 10.00732,5.669538 15.67136,8.943664 5.66404,3.274125 14.60915,8.439784 19.87802,11.47924 5.26888,3.039456 11.30413,6.539297 13.41168,7.777424 2.10755,1.238127 9.43607,5.498464 16.28561,9.467414 20.71231,12.001703 51.30116,29.737923 58.67609,34.021933 3.81994,2.21895 9.63965,5.59466 12.93269,7.50156 3.29305,1.90692 16.87237,9.79113 30.17628,17.52048 13.3039,7.72936 28.49981,16.55555 33.76869,19.61376 l 9.57977,5.5604 v 124.96415 124.96415 l -3.35292,2.0008 c -1.84411,1.10043 -8.31045,4.86991 -14.36966,8.37661 -6.0592,3.50671 -14.03436,8.13417 -17.72257,10.28325 -3.68821,2.14908 -10.26233,5.97115 -14.60915,8.4935 -4.34682,2.52234 -18.46501,10.71811 -31.37375,18.21281 -12.90874,7.49471 -27.8891,16.1767 -33.2897,19.29331 -5.40059,3.11662 -13.05244,7.53976 -17.00409,9.82919 -51.03864,29.5698 -83.3183,47.8981 -84.28497,47.85686 -0.2728,-0.0116 -1.35818,-0.47535 -2.41195,-1.03045 z M 275.65788,410.5504 c 17.34393,-0.479 30.21685,-4.22786 42.51939,-12.38254 4.56747,-3.02752 12.37963,-10.41242 15.08355,-14.25858 6.65729,-9.46964 10.51619,-19.38306 12.08779,-31.05327 0.78492,-5.82861 0.65838,-18.18589 -0.23839,-23.28083 -3.47417,-19.73803 -16.0369,-32.91766 -45.02392,-47.23479 -5.26888,-2.60238 -15.53852,-7.29073 -22.82143,-10.41856 -23.46261,-10.07659 -29.92223,-14.61313 -30.48588,-21.41004 -0.17857,-2.15331 0.0286,-3.10292 1.24366,-5.69935 3.50364,-7.4871 10.55167,-11.28156 20.9864,-11.29847 9.6862,-0.0157 19.70635,2.91603 33.72754,9.86811 5.12843,2.54281 10.93579,5.33407 12.90524,6.20279 l 3.58082,1.57949 1.86152,-3.20062 c 2.43141,-4.18047 13.45968,-26.21797 16.56919,-33.10976 1.33566,-2.96031 2.42848,-5.94524 2.42848,-6.63317 0,-2.78832 -8.71896,-9.49938 -19.0975,-14.69952 -14.70905,-7.36993 -30.57963,-10.4593 -53.94825,-10.50155 l -12.4537,-0.0225 -6.49545,1.74728 c -16.99241,4.57098 -30.46089,12.21953 -40.37632,22.92911 -10.26552,11.08771 -14.77152,21.94634 -15.49039,37.32899 -1.39674,29.8878 11.11314,48.49517 44.12117,65.62642 6.51852,3.38313 8.29003,4.20634 24.97933,11.60764 16.12507,7.15109 23.94341,11.9205 26.98013,16.45865 1.53466,2.29342 1.5649,2.4399 1.38831,6.72522 -0.15873,3.85174 -0.35332,4.6615 -1.6115,6.70584 -4.60036,7.47489 -17.61907,10.12473 -32.7768,6.67142 -10.06035,-2.292 -17.67903,-5.72616 -29.11681,-13.12455 -7.80112,-5.04606 -9.77111,-6.08273 -10.80507,-5.68596 -1.50876,0.57896 -10.13329,12.08092 -22.56346,30.09135 l -6.68319,9.68347 2.85128,2.59246 c 8.06569,7.33357 15.09956,11.9944 26.14103,17.32175 15.64464,7.54832 26.74803,10.35907 43.05015,10.89787 4.08338,0.13496 7.49928,0.31874 7.5909,0.40841 0.0916,0.0897 0.41494,0.0827 0.71849,-0.0155 0.30354,-0.0982 4.43171,-0.2857 9.17369,-0.41666 z m 130.49217,-55.09788 0.002,-55.7591 h -20.10224 -20.10223 v 55.7591 55.7591 h 20.10059 20.1006 z m 0.003,-89.8534 V 251.22946 H 386.05028 365.9475 v 14.36966 14.36965 h 20.10278 20.10277 z"
       id="path14" />
    <path
       style="fill:#ffffff;fill-opacity:1;stroke-width:0.478988"
       d="M 291.22501,594.92566 C 286.61475,592.24131 270.55666,582.92144 255.54037,574.21482 240.52408,565.50825 191.91872,537.3112 147.52846,511.55474 103.1382,485.79833 61.053072,461.38359 54.005954,457.29981 l -12.812943,-7.42505 -0.04563,-66.15269 c -0.111529,-161.68224 0.09521,-233.30906 0.674948,-233.84066 0.312486,-0.28654 4.986825,-3.06723 10.38742,-6.17932 C 57.610342,140.59 115.05304,107.28661 179.86018,69.694547 244.66733,32.102484 298.15773,1.0988969 298.72775,0.79768638 c 0.90554,-0.47851057 1.8429,-0.0747036 7.42432,3.19831332 3.51336,2.0602831 12.09987,7.0544113 19.08113,11.0980633 6.98125,4.043652 17.75849,10.291786 23.94942,13.884742 6.19093,3.592956 16.96817,9.843898 23.94943,13.890984 6.98125,4.047086 17.75849,10.295626 23.94942,13.88564 6.19093,3.590019 16.96817,9.837883 23.94943,13.884148 6.98125,4.04626 16.46523,9.548727 21.07549,12.227705 4.61026,2.678978 12.04656,6.991101 16.5251,9.582495 4.47855,2.5914 13.31588,7.714173 19.63853,11.383953 6.32265,3.66977 13.65117,7.92095 16.28561,9.44705 2.63444,1.52611 9.96296,5.77724 16.28561,9.44696 6.32265,3.66972 17.20766,9.9767 24.18892,14.01549 6.98126,4.03881 14.95642,8.6767 17.72258,10.30644 l 5.02937,2.96316 0.12052,149.95396 0.12051,149.95395 -4.9104,2.84876 c -2.70073,1.56681 -9.86793,5.72104 -15.92713,9.23162 -6.05921,3.51057 -16.08204,9.32423 -22.27297,12.91923 -6.19092,3.59499 -14.92049,8.65658 -19.39903,11.248 -4.47854,2.59138 -11.91484,6.9029 -16.5251,9.58116 -4.61027,2.67826 -12.04657,6.98916 -16.52511,9.57977 -4.47854,2.59061 -11.91484,6.90352 -16.5251,9.58427 -4.61027,2.68071 -14.09424,8.17873 -21.0755,12.21785 -6.98125,4.03917 -16.46523,9.54092 -21.07549,12.22618 -4.61026,2.68526 -18.72845,10.86523 -31.37375,18.17766 -12.64529,7.31248 -24.7158,14.31256 -26.82335,15.55573 -2.10755,1.24317 -9.54385,5.56427 -16.52511,9.60243 -6.98125,4.03816 -15.81859,9.16511 -19.63853,11.39327 -3.81993,2.22815 -7.59196,4.42662 -8.38229,4.88544 l -1.43697,0.8342 z m 17.99369,-26.1737 c 17.49989,-9.74268 50.8032,-28.85925 96.96355,-55.65842 91.91803,-53.36457 118.49002,-68.92058 124.29134,-72.76367 3.24869,-2.15213 3.87827,-2.78722 4.17419,-4.21084 0.1917,-0.92205 0.62336,-6.84953 0.95923,-13.17218 0.87219,-16.41934 0.87798,-229.16336 0.007,-245.7211 -0.6793,-12.9088 -0.99007,-14.84344 -2.56584,-15.97307 -4.81829,-3.45409 -38.06763,-22.86987 -189.61311,-110.72355 -23.31477,-13.515994 -42.75751,-24.670974 -43.20611,-24.788844 -0.45531,-0.119635 -4.26408,1.745637 -8.62179,4.222357 -12.77785,7.262338 -82.41339,47.51131 -103.12488,59.605631 -3.68821,2.153704 -11.66337,6.79151 -17.72258,10.306237 C 117.90184,130.53529 70.701267,158.25539 66.220161,161.26863 l -3.472667,2.33514 v 136.44787 136.44788 l 4.430644,2.85906 c 4.931154,3.18204 12.850555,7.89905 34.127932,20.32753 12.60208,7.36109 19.93796,11.63005 47.18037,27.45555 6.43656,3.73908 27.85329,16.1524 40.71402,23.59823 4.34682,2.5166 11.67534,6.76695 16.28561,9.44522 4.61026,2.67826 11.93879,6.92943 16.28561,9.44709 8.55541,4.95523 38.67925,22.44075 52.20975,30.30536 4.61026,2.67975 10.75329,6.28366 13.65117,8.00869 5.94842,3.54097 10.76829,6.09628 11.52734,6.11132 0.28084,0.006 4.80728,-2.38191 10.05876,-5.30561 z"
       id="path15" />
  </g>
</svg>
